<svg width="50" height="50" viewBox="0 0 50 50" fill="none" xmlns="http://www.w3.org/2000/svg">
<path d="M43.75 50C45.4076 50 46.9973 49.3415 48.1694 48.1694C49.3415 46.9973 50 45.4076 50 43.75V6.25C50 4.5924 49.3415 3.00269 48.1694 1.83059C46.9973 0.658482 45.4076 0 43.75 0L6.25 0C4.5924 0 3.00269 0.658482 1.83059 1.83059C0.658482 3.00269 0 4.5924 0 6.25L0 43.75C0 45.4076 0.658482 46.9973 1.83059 48.1694C3.00269 49.3415 4.5924 50 6.25 50L43.75 50ZM23.4375 35.9375L23.4375 17.8344L16.7313 24.5438C16.586 24.689 16.4135 24.8043 16.2237 24.8829C16.0339 24.9615 15.8304 25.002 15.625 25.002C15.4196 25.002 15.2161 24.9615 15.0263 24.8829C14.8365 24.8043 14.664 24.689 14.5187 24.5438C14.3735 24.3985 14.2582 24.226 14.1796 24.0362C14.101 23.8464 14.0605 23.643 14.0605 23.4375C14.0605 23.232 14.101 23.0286 14.1796 22.8388C14.2582 22.649 14.3735 22.4765 14.5187 22.3312L23.8937 12.9562C24.0389 12.8107 24.2113 12.6953 24.4011 12.6165C24.591 12.5378 24.7945 12.4972 25 12.4972C25.2055 12.4972 25.409 12.5378 25.5989 12.6165C25.7887 12.6953 25.9611 12.8107 26.1063 12.9562L35.4813 22.3312C35.6265 22.4765 35.7418 22.649 35.8204 22.8388C35.899 23.0286 35.9395 23.232 35.9395 23.4375C35.9395 23.643 35.899 23.8464 35.8204 24.0362C35.7418 24.226 35.6265 24.3985 35.4813 24.5438C35.1879 24.8371 34.7899 25.002 34.375 25.002C34.1695 25.002 33.9661 24.9615 33.7763 24.8829C33.5865 24.8043 33.414 24.689 33.2687 24.5438L26.5625 17.8344L26.5625 35.9375C26.5625 36.3519 26.3979 36.7493 26.1049 37.0424C25.8118 37.3354 25.4144 37.5 25 37.5C24.5856 37.5 24.1882 37.3354 23.8951 37.0424C23.6021 36.7493 23.4375 36.3519 23.4375 35.9375Z" fill="white"/>
</svg>
