<svg width="375" height="200" viewBox="0 0 375 200" fill="none" xmlns="http://www.w3.org/2000/svg">
<path d="M375 0H0V200H375V0Z" fill="white"/>
<path d="M78.125 0H0V200H78.125V0Z" fill="#1087AE"/>
<path d="M26.7865 22.4043V25.3906H26.1333V24.0844H24.2599V25.3906H23.6068V22.4043H24.2599V23.6848H26.1333V22.4043H26.7865ZM29.0156 25.4293C28.7177 25.4293 28.4484 25.3791 28.2078 25.2789C27.9672 25.1758 27.7781 25.0326 27.6406 24.8492C27.5031 24.6631 27.4344 24.4482 27.4344 24.2047C27.4344 23.9641 27.505 23.7506 27.6464 23.5645C27.7875 23.3783 27.9805 23.235 28.225 23.1348C28.4693 23.0346 28.7425 22.9844 29.0443 22.9844C29.3458 22.9844 29.619 23.0346 29.8636 23.1348C30.1078 23.235 30.3008 23.3783 30.4422 23.5645C30.5833 23.7506 30.6542 23.9641 30.6542 24.2047C30.6542 24.4453 30.5815 24.6588 30.4365 24.8449C30.2912 25.031 30.0927 25.1758 29.8406 25.2789C29.5922 25.3791 29.3172 25.4293 29.0156 25.4293ZM29.0156 25.0039C29.1836 25.0039 29.3401 24.9738 29.4854 24.9137C29.6344 24.8535 29.7547 24.7633 29.8464 24.643C29.938 24.5227 29.9839 24.3766 29.9839 24.2047C29.9839 24.0328 29.9399 23.8881 29.8521 23.7707C29.7641 23.6504 29.6477 23.5602 29.5026 23.5C29.3573 23.4398 29.2008 23.4098 29.0328 23.4098C28.8646 23.4098 28.7081 23.4398 28.563 23.5C28.4216 23.5602 28.3089 23.6504 28.225 23.7707C28.1409 23.8881 28.099 24.0328 28.099 24.2047C28.099 24.4596 28.1849 24.6572 28.3568 24.7977C28.5323 24.9352 28.7521 25.0039 29.0156 25.0039ZM35.1211 22.9844C35.3693 22.9844 35.5909 23.023 35.7857 23.1004C35.9844 23.1777 36.1391 23.2924 36.2498 23.4441C36.3643 23.5959 36.4216 23.7793 36.4216 23.9941V25.3906H35.7742V24.0672C35.7742 23.8553 35.7037 23.6934 35.5623 23.5816C35.4208 23.467 35.2281 23.4098 34.9836 23.4098C34.7391 23.4098 34.5443 23.467 34.3992 23.5816C34.2578 23.6934 34.1873 23.8553 34.1873 24.0672V25.3906H33.5399V24.0672C33.5399 23.8553 33.4693 23.6934 33.3279 23.5816C33.1865 23.467 32.9938 23.4098 32.7492 23.4098C32.5047 23.4098 32.3099 23.467 32.1649 23.5816C32.0235 23.6934 31.9529 23.8553 31.9529 24.0672V25.3906H31.2998V23.023H31.9529V23.2937C32.0599 23.1963 32.1953 23.1205 32.3596 23.066C32.524 23.0115 32.6995 22.9844 32.8867 22.9844C33.1388 22.9844 33.3641 23.0244 33.5628 23.1047C33.7615 23.185 33.9141 23.301 34.0211 23.4527C34.1167 23.3096 34.2656 23.1963 34.468 23.1133C34.6703 23.0273 34.888 22.9844 35.1211 22.9844ZM40.1459 24.1488C40.1459 24.2377 40.1383 24.3178 40.1229 24.3894H37.711C37.7302 24.5785 37.8237 24.7303 37.9917 24.8449C38.1599 24.9596 38.3662 25.0168 38.6104 25.0168C38.962 25.0168 39.2102 24.9064 39.3552 24.6859H40.0599C39.9646 24.9037 39.7906 25.0826 39.5386 25.223C39.2904 25.3605 38.981 25.4293 38.6104 25.4293C38.3089 25.4293 38.0375 25.3791 37.7969 25.2789C37.5602 25.1758 37.3729 25.0326 37.2354 24.8492C37.1018 24.6631 37.0349 24.4482 37.0349 24.2047C37.0349 23.9611 37.1 23.7478 37.2297 23.5645C37.3636 23.3783 37.5487 23.235 37.7854 23.1348C38.0261 23.0346 38.3011 22.9844 38.6104 22.9844C38.9084 22.9844 39.174 23.033 39.4068 23.1305C39.6399 23.2279 39.8214 23.3654 39.9511 23.543C40.081 23.7178 40.1459 23.9197 40.1459 24.1488ZM39.4641 23.9941C39.4604 23.8137 39.3745 23.6689 39.2063 23.5602C39.0383 23.4514 38.8302 23.3969 38.5818 23.3969C38.3565 23.3969 38.1636 23.4514 38.0031 23.5602C37.8427 23.6662 37.7474 23.8107 37.7167 23.9941H39.4641Z" fill="#F5F5F5"/>
<path d="M23.3891 52.7973C23.3891 52.5051 23.4788 52.243 23.6583 52.0109C23.8417 51.7789 24.088 51.5984 24.3974 51.4695C24.7106 51.3377 25.0524 51.2719 25.4229 51.2719C25.8469 51.2719 26.2232 51.3506 26.5516 51.5082C26.8839 51.6629 27.1245 51.8834 27.2734 52.1699H26.4885C26.3854 52.0123 26.2422 51.8949 26.0589 51.8176C25.8755 51.7402 25.6635 51.7016 25.4229 51.7016C25.1594 51.7016 24.9245 51.7459 24.7182 51.8348C24.512 51.9236 24.3497 52.051 24.2313 52.2172C24.1167 52.3834 24.0594 52.5768 24.0594 52.7973C24.0594 53.0178 24.1167 53.2111 24.2313 53.3773C24.3497 53.5436 24.512 53.6725 24.7182 53.7641C24.9245 53.8529 25.1594 53.8973 25.4229 53.8973C25.6635 53.8973 25.8755 53.8586 26.0589 53.7812C26.2422 53.7039 26.3854 53.5865 26.4885 53.4289H27.2734C27.1245 53.7154 26.8839 53.9359 26.5516 54.0906C26.2232 54.2453 25.8469 54.3227 25.4229 54.3227C25.0486 54.3227 24.7068 54.2582 24.3974 54.1293C24.088 53.9975 23.8417 53.8156 23.6583 53.5836C23.4788 53.3516 23.3891 53.0895 23.3891 52.7973ZM27.8203 53.1023C27.8203 52.8646 27.8852 52.6541 28.0151 52.4707C28.1487 52.2873 28.3281 52.1455 28.5537 52.0453C28.7828 51.9422 29.0349 51.8906 29.3099 51.8906C29.5581 51.8906 29.774 51.9279 29.9573 52.0023C30.1443 52.074 30.2932 52.1643 30.4042 52.273V51.9293H31.063V54.2969H30.4042V53.9445C30.2932 54.0563 30.1425 54.1494 29.9516 54.2238C29.7604 54.2982 29.5427 54.3355 29.2984 54.3355C29.0271 54.3355 28.7789 54.284 28.5537 54.1809C28.3281 54.0748 28.1487 53.9287 28.0151 53.7426C27.8852 53.5535 27.8203 53.34 27.8203 53.1023ZM30.4042 53.1109C30.4042 52.9477 30.3583 52.8059 30.2667 52.6855C30.1787 52.5652 30.0622 52.4736 29.9172 52.4105C29.7719 52.3475 29.6154 52.316 29.4474 52.316C29.2792 52.316 29.1227 52.3475 28.9776 52.4105C28.8323 52.4707 28.7141 52.5609 28.6224 52.6813C28.5344 52.7986 28.4906 52.9391 28.4906 53.1023C28.4906 53.2656 28.5344 53.4088 28.6224 53.532C28.7141 53.6553 28.8323 53.7498 28.9776 53.8156C29.1266 53.8787 29.2831 53.9102 29.4474 53.9102C29.6154 53.9102 29.7719 53.8787 29.9172 53.8156C30.0622 53.7525 30.1787 53.6609 30.2667 53.5406C30.3583 53.4174 30.4042 53.2742 30.4042 53.1109ZM31.7031 53.1023C31.7031 52.8646 31.768 52.6541 31.8979 52.4707C32.0315 52.2873 32.2109 52.1455 32.4365 52.0453C32.6656 51.9422 32.9195 51.8906 33.1984 51.8906C33.4047 51.8906 33.607 51.925 33.8057 51.9938C34.0081 52.0596 34.1685 52.1484 34.287 52.2602V51.1172H34.9458V54.2969H34.287V53.9402C34.18 54.0549 34.031 54.1494 33.8401 54.2238C33.6529 54.2982 33.437 54.3355 33.1927 54.3355C32.9177 54.3355 32.6656 54.284 32.4365 54.1809C32.2109 54.0748 32.0315 53.9287 31.8979 53.7426C31.768 53.5535 31.7031 53.34 31.7031 53.1023ZM34.287 53.1109C34.287 52.9477 34.2412 52.8059 34.1495 52.6855C34.0615 52.5652 33.9451 52.4736 33.8 52.4105C33.6547 52.3475 33.4982 52.316 33.3302 52.316C33.162 52.316 33.0055 52.3475 32.8604 52.4105C32.7151 52.4707 32.5969 52.5609 32.5052 52.6813C32.4172 52.7986 32.3734 52.9391 32.3734 53.1023C32.3734 53.2656 32.4172 53.4088 32.5052 53.532C32.5969 53.6553 32.7151 53.7498 32.8604 53.8156C33.0094 53.8787 33.1659 53.9102 33.3302 53.9102C33.4982 53.9102 33.6547 53.8787 33.8 53.8156C33.9451 53.7525 34.0615 53.6609 34.1495 53.5406C34.2412 53.4174 34.287 53.2742 34.287 53.1109ZM35.5859 53.1023C35.5859 52.8646 35.6508 52.6541 35.7807 52.4707C35.9143 52.2873 36.094 52.1455 36.3193 52.0453C36.5484 51.9422 36.8005 51.8906 37.0755 51.8906C37.3237 51.8906 37.5396 51.9279 37.7229 52.0023C37.9102 52.074 38.0591 52.1643 38.1698 52.273V51.9293H38.8287V54.2969H38.1698V53.9445C38.0591 54.0563 37.9081 54.1494 37.7172 54.2238C37.5263 54.2982 37.3086 54.3355 37.0641 54.3355C36.793 54.3355 36.5445 54.284 36.3193 54.1809C36.094 54.0748 35.9143 53.9287 35.7807 53.7426C35.6508 53.5535 35.5859 53.34 35.5859 53.1023ZM38.1698 53.1109C38.1698 52.9477 38.124 52.8059 38.0323 52.6855C37.9445 52.5652 37.8279 52.4736 37.6828 52.4105C37.5378 52.3475 37.381 52.316 37.213 52.316C37.0451 52.316 36.8883 52.3475 36.7432 52.4105C36.5982 52.4707 36.4797 52.5609 36.388 52.6813C36.3003 52.7986 36.2563 52.9391 36.2563 53.1023C36.2563 53.2656 36.3003 53.4088 36.388 53.532C36.4797 53.6553 36.5982 53.7498 36.7432 53.8156C36.8922 53.8787 37.0487 53.9102 37.213 53.9102C37.381 53.9102 37.5378 53.8787 37.6828 53.8156C37.8279 53.7525 37.9445 53.6609 38.0323 53.5406C38.124 53.4174 38.1698 53.2742 38.1698 53.1109ZM40.8323 54.3355C40.5841 54.3355 40.3607 54.3025 40.162 54.2367C39.9672 54.168 39.8125 54.0764 39.6979 53.9617C39.5833 53.8443 39.5221 53.7139 39.5146 53.5707H40.1906C40.2021 53.6709 40.2651 53.7555 40.3797 53.8242C40.4982 53.89 40.6451 53.923 40.8208 53.923C41.0042 53.923 41.1456 53.8973 41.2448 53.8457C41.3479 53.7912 41.3995 53.7225 41.3995 53.6395C41.3995 53.5506 41.3422 53.4848 41.2276 53.4418C41.1169 53.3988 40.9393 53.3516 40.6948 53.3C40.4581 53.2514 40.2651 53.2041 40.1162 53.1582C39.9672 53.1123 39.8372 53.0422 39.7266 52.9477C39.6195 52.8531 39.5662 52.7285 39.5662 52.5738C39.5662 52.4479 39.6159 52.3332 39.7151 52.2301C39.8143 52.124 39.9557 52.041 40.1391 51.9809C40.3263 51.9207 40.5401 51.8906 40.7807 51.8906C41.1399 51.8906 41.4281 51.9594 41.6458 52.0969C41.8675 52.2314 41.9857 52.4162 42.001 52.6512H41.3479C41.3365 52.5451 41.2792 52.4607 41.1761 52.3977C41.0729 52.3346 40.9336 52.3031 40.7578 52.3031C40.5859 52.3031 40.4542 52.3275 40.3625 52.3762C40.2708 52.4248 40.225 52.4893 40.225 52.5695C40.225 52.6326 40.2555 52.6855 40.3167 52.7285C40.3779 52.7715 40.4524 52.8059 40.5401 52.8316C40.6279 52.8545 40.7578 52.8846 40.9297 52.9219C41.1589 52.9678 41.3461 53.015 41.4912 53.0637C41.6401 53.1096 41.768 53.1783 41.875 53.2699C41.982 53.3615 42.0372 53.4834 42.0412 53.6352C42.0412 53.7697 41.9914 53.89 41.8922 53.9961C41.793 54.1021 41.6516 54.1852 41.4682 54.2453C41.2888 54.3055 41.0768 54.3355 40.8323 54.3355ZM43.5089 52.3289V53.6395C43.5089 53.7283 43.5357 53.7928 43.5891 53.8328C43.6464 53.8701 43.7419 53.8887 43.8755 53.8887H44.2766V54.2969H43.7609C43.4669 54.2969 43.2414 54.2453 43.0849 54.1422C42.9284 54.0391 42.85 53.8715 42.85 53.6395V52.3289H42.4776V51.9293H42.85V51.3406H43.5089V51.9293H44.2766V52.3289H43.5089ZM45.5318 52.273C45.6271 52.1527 45.7531 52.0596 45.9099 51.9938C46.0703 51.925 46.2594 51.8906 46.4771 51.8906V52.3977H46.3109C46.055 52.3977 45.8602 52.4463 45.7266 52.5437C45.5966 52.6412 45.5318 52.8102 45.5318 53.0508V54.2969H44.8787V51.9293H45.5318V52.273ZM46.8596 53.1023C46.8596 52.8646 46.9245 52.6541 47.0544 52.4707C47.188 52.2873 47.3677 52.1455 47.593 52.0453C47.8221 51.9422 48.0742 51.8906 48.3492 51.8906C48.5974 51.8906 48.8133 51.9279 48.9966 52.0023C49.1839 52.074 49.3328 52.1643 49.4435 52.273V51.9293H50.1024V54.2969H49.4435V53.9445C49.3328 54.0563 49.1818 54.1494 48.9909 54.2238C48.8 54.2982 48.5823 54.3355 48.3378 54.3355C48.0667 54.3355 47.8182 54.284 47.593 54.1809C47.3677 54.0748 47.188 53.9287 47.0544 53.7426C46.9245 53.5535 46.8596 53.34 46.8596 53.1023ZM49.4435 53.1109C49.4435 52.9477 49.3977 52.8059 49.306 52.6855C49.2182 52.5652 49.1016 52.4736 48.9565 52.4105C48.8115 52.3475 48.6547 52.316 48.4867 52.316C48.3188 52.316 48.162 52.3475 48.0169 52.4105C47.8719 52.4707 47.7534 52.5609 47.6617 52.6813C47.574 52.7986 47.53 52.9391 47.53 53.1023C47.53 53.2656 47.574 53.4088 47.6617 53.532C47.7534 53.6553 47.8719 53.7498 48.0169 53.8156C48.1659 53.8787 48.3224 53.9102 48.4867 53.9102C48.6547 53.9102 48.8115 53.8787 48.9565 53.8156C49.1016 53.7525 49.2182 53.6609 49.306 53.5406C49.3977 53.4174 49.4435 53.2742 49.4435 53.1109ZM51.6133 52.273C51.7089 52.1527 51.8349 52.0596 51.9914 51.9938C52.1518 51.925 52.3409 51.8906 52.5586 51.8906V52.3977H52.3925C52.1365 52.3977 51.9417 52.4463 51.8081 52.5437C51.6781 52.6412 51.6133 52.8102 51.6133 53.0508V54.2969H50.9602V51.9293H51.6133V52.273Z" fill="#F5F5F5"/>
<path d="M24.9073 36.8574C25.3313 36.8574 25.7018 36.9189 26.0188 37.0422C26.3396 37.1625 26.5859 37.3373 26.7578 37.5664C26.9336 37.7928 27.0214 38.0576 27.0214 38.3613C27.0214 38.665 26.9336 38.9285 26.7578 39.152C26.5859 39.3754 26.3396 39.5473 26.0188 39.6676C25.7018 39.785 25.3313 39.8438 24.9073 39.8438H23.6068V36.8574H24.9073ZM24.9073 39.4441C25.3733 39.4441 25.7304 39.3496 25.9787 39.1605C26.2268 38.9715 26.3511 38.7051 26.3511 38.3613C26.3511 38.0146 26.2268 37.7439 25.9787 37.5492C25.7304 37.3545 25.3733 37.257 24.9073 37.257H24.2599V39.4441H24.9073ZM27.4511 38.6492C27.4511 38.4115 27.5159 38.201 27.6458 38.0176C27.7794 37.8342 27.9589 37.6924 28.1844 37.5922C28.4136 37.4891 28.6656 37.4375 28.9406 37.4375C29.1888 37.4375 29.4047 37.4748 29.588 37.5492C29.775 37.6209 29.924 37.7111 30.0349 37.8199V37.4762H30.6938V39.8438H30.0349V39.4914C29.924 39.6031 29.7732 39.6963 29.5823 39.7707C29.3912 39.8451 29.1734 39.8824 28.9292 39.8824C28.6578 39.8824 28.4096 39.8309 28.1844 39.7277C27.9589 39.6217 27.7794 39.4756 27.6458 39.2895C27.5159 39.1004 27.4511 38.8869 27.4511 38.6492ZM30.0349 38.6578C30.0349 38.4945 29.9891 38.3527 29.8974 38.2324C29.8094 38.1121 29.693 38.0205 29.5479 37.9574C29.4026 37.8943 29.2461 37.8629 29.0781 37.8629C28.9099 37.8629 28.7534 37.8943 28.6083 37.9574C28.463 38.0176 28.3448 38.1078 28.2531 38.2281C28.1651 38.3455 28.1214 38.4859 28.1214 38.6492C28.1214 38.8125 28.1651 38.9557 28.2531 39.0789C28.3448 39.2021 28.463 39.2967 28.6083 39.3625C28.7573 39.4256 28.9138 39.457 29.0781 39.457C29.2461 39.457 29.4026 39.4256 29.5479 39.3625C29.693 39.2994 29.8094 39.2078 29.8974 39.0875C29.9891 38.9643 30.0349 38.8211 30.0349 38.6578ZM32.6974 39.8824C32.449 39.8824 32.2255 39.8494 32.0271 39.7836C31.8323 39.7148 31.6776 39.6232 31.563 39.5086C31.4484 39.3912 31.3873 39.2607 31.3797 39.1176H32.0557C32.0672 39.2178 32.1302 39.3023 32.2448 39.3711C32.363 39.4369 32.5102 39.4699 32.6859 39.4699C32.8693 39.4699 33.0104 39.4441 33.1099 39.3926C33.213 39.3381 33.2646 39.2693 33.2646 39.1863C33.2646 39.0975 33.2073 39.0316 33.0927 38.9887C32.9818 38.9457 32.8042 38.8984 32.5599 38.8469C32.3229 38.7982 32.1302 38.751 31.9813 38.7051C31.8323 38.6592 31.7024 38.5891 31.5917 38.4945C31.4846 38.4 31.4313 38.2754 31.4313 38.1207C31.4313 37.9947 31.4807 37.8801 31.5802 37.777C31.6794 37.6709 31.8208 37.5879 32.0042 37.5277C32.1912 37.4676 32.4052 37.4375 32.6458 37.4375C33.0047 37.4375 33.2932 37.5062 33.511 37.6437C33.7323 37.7783 33.8508 37.9631 33.8662 38.198H33.213C33.2016 38.092 33.1443 38.0076 33.0412 37.9445C32.938 37.8814 32.7984 37.85 32.6229 37.85C32.4511 37.85 32.3193 37.8744 32.2276 37.923C32.1359 37.9717 32.0901 38.0361 32.0901 38.1164C32.0901 38.1795 32.1206 38.2324 32.1818 38.2754C32.2427 38.3184 32.3172 38.3527 32.4052 38.3785C32.493 38.4014 32.6229 38.4314 32.7948 38.4688C33.024 38.5147 33.2109 38.5619 33.3563 38.6105C33.5052 38.6564 33.6331 38.7252 33.7401 38.8168C33.8469 38.9084 33.9024 39.0303 33.9063 39.182C33.9063 39.3166 33.8565 39.4369 33.7573 39.543C33.6578 39.649 33.5167 39.732 33.3333 39.7922C33.1537 39.8523 32.9417 39.8824 32.6974 39.8824ZM36.2448 37.4375C36.4854 37.4375 36.6992 37.4762 36.8865 37.5535C37.0774 37.6309 37.2263 37.7455 37.3333 37.8973C37.444 38.049 37.4995 38.2324 37.4995 38.4473V39.8438H36.8521V38.5203C36.8521 38.3084 36.7813 38.1465 36.6401 38.0348C36.4987 37.9201 36.3057 37.8629 36.0615 37.8629C35.8169 37.8629 35.6221 37.9201 35.4771 38.0348C35.3357 38.1465 35.2651 38.3084 35.2651 38.5203V39.8438H34.612V36.6641H35.2651V37.7512C35.3758 37.651 35.5151 37.5736 35.6833 37.5191C35.8552 37.4647 36.0422 37.4375 36.2448 37.4375ZM38.9857 37.8285C39.0964 37.7139 39.2474 37.6209 39.4383 37.5492C39.6331 37.4748 39.849 37.4375 40.0857 37.4375C40.3646 37.4375 40.6167 37.4877 40.8419 37.5879C41.0672 37.6881 41.2448 37.8314 41.3748 38.0176C41.5047 38.201 41.5695 38.4115 41.5695 38.6492C41.5695 38.8869 41.5047 39.1004 41.3748 39.2895C41.2448 39.4756 41.0654 39.6217 40.8362 39.7277C40.611 39.8309 40.3607 39.8824 40.0857 39.8824C39.8412 39.8824 39.6235 39.8467 39.4326 39.775C39.2453 39.7033 39.0964 39.6117 38.9857 39.5V39.8438H38.3326V36.6641H38.9857V37.8285ZM40.905 38.6492C40.905 38.4859 40.8591 38.3455 40.7675 38.2281C40.6797 38.1078 40.5612 38.0176 40.4123 37.9574C40.2672 37.8943 40.1104 37.8629 39.9425 37.8629C39.7781 37.8629 39.6216 37.8943 39.4727 37.9574C39.3276 38.0205 39.2091 38.1121 39.1175 38.2324C39.0297 38.3527 38.9857 38.4945 38.9857 38.6578C38.9857 38.8211 39.0297 38.9643 39.1175 39.0875C39.2091 39.2078 39.3276 39.2994 39.4727 39.3625C39.6216 39.4256 39.7781 39.457 39.9425 39.457C40.1104 39.457 40.2672 39.4256 40.4123 39.3625C40.5612 39.2967 40.6797 39.2021 40.7675 39.0789C40.8591 38.9557 40.905 38.8125 40.905 38.6492ZM43.5847 39.8824C43.2867 39.8824 43.0175 39.8322 42.7768 39.732C42.5362 39.6289 42.3472 39.4857 42.2097 39.3023C42.0722 39.1162 42.0034 38.9014 42.0034 38.6578C42.0034 38.4172 42.074 38.2037 42.2154 38.0176C42.3568 37.8314 42.5495 37.6881 42.794 37.5879C43.0386 37.4877 43.3115 37.4375 43.6133 37.4375C43.9151 37.4375 44.188 37.4877 44.4326 37.5879C44.6771 37.6881 44.8698 37.8314 45.0112 38.0176C45.1526 38.2037 45.2232 38.4172 45.2232 38.6578C45.2232 38.8984 45.1505 39.1119 45.0055 39.298C44.8604 39.4842 44.6617 39.6289 44.4097 39.732C44.1615 39.8322 43.8865 39.8824 43.5847 39.8824ZM43.5847 39.457C43.7526 39.457 43.9094 39.427 44.0544 39.3668C44.2034 39.3066 44.3237 39.2164 44.4154 39.0961C44.507 38.9758 44.5529 38.8297 44.5529 38.6578C44.5529 38.4859 44.5089 38.3412 44.4211 38.2238C44.3333 38.1035 44.2167 38.0133 44.0716 37.9531C43.9266 37.893 43.7698 37.8629 43.6018 37.8629C43.4339 37.8629 43.2771 37.893 43.132 37.9531C42.9906 38.0133 42.8781 38.1035 42.794 38.2238C42.7099 38.3412 42.668 38.4859 42.668 38.6578C42.668 38.9127 42.7539 39.1104 42.9258 39.2508C43.1016 39.3883 43.3211 39.457 43.5847 39.457ZM45.6511 38.6492C45.6511 38.4115 45.7162 38.201 45.8458 38.0176C45.9797 37.8342 46.1591 37.6924 46.3844 37.5922C46.6136 37.4891 46.8656 37.4375 47.1406 37.4375C47.3891 37.4375 47.6047 37.4748 47.788 37.5492C47.9753 37.6209 48.1242 37.7111 48.2349 37.8199V37.4762H48.8938V39.8438H48.2349V39.4914C48.1242 39.6031 47.9734 39.6963 47.7823 39.7707C47.5914 39.8451 47.3737 39.8824 47.1292 39.8824C46.8581 39.8824 46.6099 39.8309 46.3844 39.7277C46.1591 39.6217 45.9797 39.4756 45.8458 39.2895C45.7162 39.1004 45.6511 38.8869 45.6511 38.6492ZM48.2349 38.6578C48.2349 38.4945 48.1891 38.3527 48.0974 38.2324C48.0096 38.1121 47.8932 38.0205 47.7479 37.9574C47.6029 37.8943 47.4464 37.8629 47.2781 37.8629C47.1102 37.8629 46.9537 37.8943 46.8083 37.9574C46.6633 38.0176 46.5448 38.1078 46.4531 38.2281C46.3654 38.3455 46.3214 38.4859 46.3214 38.6492C46.3214 38.8125 46.3654 38.9557 46.4531 39.0789C46.5448 39.2021 46.6633 39.2967 46.8083 39.3625C46.9573 39.4256 47.1141 39.457 47.2781 39.457C47.4464 39.457 47.6029 39.4256 47.7479 39.3625C47.8932 39.2994 48.0096 39.2078 48.0974 39.0875C48.1891 38.9643 48.2349 38.8211 48.2349 38.6578ZM50.4047 37.8199C50.5003 37.6996 50.6263 37.6064 50.7828 37.5406C50.9432 37.4719 51.1323 37.4375 51.35 37.4375V37.9445H51.1839C50.9281 37.9445 50.7333 37.9932 50.5995 38.0906C50.4698 38.1881 50.4047 38.357 50.4047 38.5977V39.8438H49.7516V37.4762H50.4047V37.8199ZM51.7328 38.6492C51.7328 38.4115 51.7977 38.201 51.9276 38.0176C52.0612 37.8342 52.2409 37.6924 52.4662 37.5922C52.6953 37.4891 52.9492 37.4375 53.2281 37.4375C53.4344 37.4375 53.6367 37.4719 53.8354 37.5406C54.0378 37.6064 54.1982 37.6953 54.3167 37.807V36.6641H54.9755V39.8438H54.3167V39.4871C54.2097 39.6018 54.0607 39.6963 53.8698 39.7707C53.6826 39.8451 53.4669 39.8824 53.2224 39.8824C52.9474 39.8824 52.6953 39.8309 52.4662 39.7277C52.2409 39.6217 52.0612 39.4756 51.9276 39.2895C51.7977 39.1004 51.7328 38.8869 51.7328 38.6492ZM54.3167 38.6578C54.3167 38.4945 54.2708 38.3527 54.1792 38.2324C54.0914 38.1121 53.9748 38.0205 53.8297 37.9574C53.6846 37.8943 53.5279 37.8629 53.3599 37.8629C53.1919 37.8629 53.0352 37.8943 52.8901 37.9574C52.7451 38.0176 52.6266 38.1078 52.5349 38.2281C52.4471 38.3455 52.4031 38.4859 52.4031 38.6492C52.4031 38.8125 52.4471 38.9557 52.5349 39.0789C52.6266 39.2021 52.7451 39.2967 52.8901 39.3625C53.0391 39.4256 53.1956 39.457 53.3599 39.457C53.5279 39.457 53.6846 39.4256 53.8297 39.3625C53.9748 39.2994 54.0914 39.2078 54.1792 39.0875C54.2708 38.9643 54.3167 38.8211 54.3167 38.6578Z" fill="#F5F5F5"/>
<path d="M24.9187 184.6C24.6514 184.6 24.4107 184.566 24.1969 184.497C23.983 184.426 23.8149 184.325 23.6927 184.196C23.5705 184.068 23.5094 183.917 23.5094 183.745H24.2083C24.2236 183.874 24.2904 183.98 24.4088 184.063C24.5311 184.146 24.701 184.188 24.9187 184.188C25.1441 184.188 25.3198 184.148 25.4458 184.068C25.5719 183.985 25.6349 183.879 25.6349 183.75C25.6349 183.649 25.5948 183.568 25.5146 183.505C25.4382 183.442 25.3408 183.393 25.2224 183.359C25.1078 183.324 24.9474 183.287 24.7411 183.247C24.4814 183.195 24.2694 183.144 24.1052 183.092C23.9448 183.038 23.8073 182.955 23.6927 182.843C23.5781 182.731 23.5208 182.582 23.5208 182.396C23.5208 182.224 23.5781 182.074 23.6927 181.945C23.8073 181.816 23.9677 181.717 24.174 181.648C24.3802 181.58 24.6189 181.545 24.8901 181.545C25.2759 181.545 25.591 181.618 25.8354 181.764C26.0836 181.908 26.2211 182.105 26.2479 182.357H25.526C25.5146 182.249 25.4458 182.155 25.3198 182.078C25.1937 182.001 25.0276 181.962 24.8213 181.962C24.6342 181.962 24.4814 181.998 24.363 182.07C24.2446 182.141 24.1854 182.244 24.1854 182.379C24.1854 182.471 24.2217 182.546 24.2943 182.607C24.3706 182.664 24.4661 182.71 24.5807 182.744C24.6953 182.779 24.8519 182.816 25.0505 182.856C25.3141 182.91 25.5279 182.965 25.6922 183.019C25.8602 183.074 26.0016 183.158 26.1161 183.273C26.2346 183.384 26.2937 183.535 26.2937 183.724C26.2937 183.876 26.2383 184.019 26.1276 184.154C26.0206 184.288 25.8622 184.397 25.6521 184.48C25.4458 184.56 25.2014 184.6 24.9187 184.6ZM26.8466 183.376C26.8466 183.138 26.9117 182.928 27.0414 182.744C27.1753 182.561 27.3547 182.419 27.5799 182.319C27.8091 182.216 28.0612 182.164 28.3362 182.164C28.5846 182.164 28.8003 182.201 28.9836 182.276C29.1708 182.347 29.3198 182.438 29.4305 182.546V182.203H30.0893V184.57H29.4305V184.218C29.3198 184.33 29.169 184.423 28.9779 184.497C28.787 184.572 28.5693 184.609 28.3247 184.609C28.0536 184.609 27.8055 184.557 27.5799 184.454C27.3547 184.348 27.1753 184.202 27.0414 184.016C26.9117 183.827 26.8466 183.613 26.8466 183.376ZM29.4305 183.384C29.4305 183.221 29.3846 183.079 29.293 182.959C29.2052 182.839 29.0888 182.747 28.9435 182.684C28.7984 182.621 28.6419 182.589 28.4737 182.589C28.3057 182.589 28.1492 182.621 28.0039 182.684C27.8588 182.744 27.7404 182.834 27.6487 182.955C27.5609 183.072 27.5169 183.212 27.5169 183.376C27.5169 183.539 27.5609 183.682 27.6487 183.805C27.7404 183.929 27.8588 184.023 28.0039 184.089C28.1529 184.152 28.3096 184.184 28.4737 184.184C28.6419 184.184 28.7984 184.152 28.9435 184.089C29.0888 184.026 29.2052 183.934 29.293 183.814C29.3846 183.691 29.4305 183.548 29.4305 183.384ZM31.2797 181.889C31.1612 181.889 31.062 181.859 30.9818 181.799C30.9016 181.739 30.8615 181.664 30.8615 181.575C30.8615 181.487 30.9016 181.412 30.9818 181.352C31.062 181.292 31.1612 181.262 31.2797 181.262C31.3943 181.262 31.4917 181.292 31.5719 181.352C31.6521 181.412 31.6922 181.487 31.6922 181.575C31.6922 181.664 31.6521 181.739 31.5719 181.799C31.4917 181.859 31.3943 181.889 31.2797 181.889ZM31.6005 182.203V184.57H30.9474V182.203H31.6005ZM33.1109 182.546C33.2065 182.426 33.3325 182.333 33.4891 182.267C33.6495 182.198 33.8385 182.164 34.0562 182.164V182.671H33.8901C33.6344 182.671 33.4396 182.72 33.3057 182.817C33.176 182.915 33.1109 183.084 33.1109 183.324V184.57H32.4578V182.203H33.1109V182.546Z" fill="#F5F5F5"/>
<path d="M23.3891 171.743C23.3891 171.45 23.4788 171.188 23.6583 170.956C23.8417 170.724 24.088 170.544 24.3974 170.415C24.7106 170.283 25.0524 170.217 25.4229 170.217C25.8469 170.217 26.2232 170.296 26.5516 170.454C26.8839 170.608 27.1245 170.829 27.2734 171.115H26.4885C26.3854 170.958 26.2422 170.84 26.0589 170.763C25.8755 170.686 25.6635 170.647 25.4229 170.647C25.1594 170.647 24.9245 170.691 24.7182 170.78C24.512 170.869 24.3497 170.996 24.2313 171.162C24.1167 171.329 24.0594 171.522 24.0594 171.743C24.0594 171.963 24.1167 172.156 24.2313 172.323C24.3497 172.489 24.512 172.618 24.7182 172.709C24.9245 172.798 25.1594 172.843 25.4229 172.843C25.6635 172.843 25.8755 172.804 26.0589 172.727C26.2422 172.649 26.3854 172.532 26.4885 172.374H27.2734C27.1245 172.661 26.8839 172.881 26.5516 173.036C26.2232 173.191 25.8469 173.268 25.4229 173.268C25.0486 173.268 24.7068 173.204 24.3974 173.075C24.088 172.943 23.8417 172.761 23.6583 172.529C23.4788 172.297 23.3891 172.035 23.3891 171.743ZM29.4073 173.281C29.1094 173.281 28.8401 173.231 28.5995 173.13C28.3589 173.027 28.1698 172.884 28.0323 172.701C27.8948 172.515 27.826 172.3 27.826 172.056C27.826 171.816 27.8966 171.602 28.038 171.416C28.1792 171.23 28.3721 171.087 28.6167 170.986C28.8609 170.886 29.1341 170.836 29.4359 170.836C29.7375 170.836 30.0107 170.886 30.2552 170.986C30.4995 171.087 30.6925 171.23 30.8339 171.416C30.975 171.602 31.0458 171.816 31.0458 172.056C31.0458 172.297 30.9732 172.51 30.8281 172.696C30.6828 172.883 30.4844 173.027 30.2323 173.13C29.9839 173.231 29.7089 173.281 29.4073 173.281ZM29.4073 172.855C29.5753 172.855 29.7318 172.825 29.8771 172.765C30.026 172.705 30.1464 172.615 30.238 172.495C30.3297 172.374 30.3755 172.228 30.3755 172.056C30.3755 171.884 30.3315 171.74 30.2438 171.622C30.1557 171.502 30.0393 171.412 29.8943 171.352C29.749 171.291 29.5925 171.261 29.4245 171.261C29.2563 171.261 29.0997 171.291 28.9547 171.352C28.8133 171.412 28.7005 171.502 28.6167 171.622C28.5326 171.74 28.4906 171.884 28.4906 172.056C28.4906 172.311 28.5766 172.509 28.7484 172.649C28.924 172.787 29.1438 172.855 29.4073 172.855ZM33.2841 170.836C33.5323 170.836 33.7539 170.875 33.9487 170.952C34.1474 171.029 34.3021 171.144 34.4128 171.296C34.5234 171.447 34.5789 171.631 34.5789 171.846V173.242H33.9315V171.919C33.9315 171.707 33.8609 171.545 33.7195 171.433C33.5781 171.319 33.3854 171.261 33.1409 171.261C32.8964 171.261 32.7016 171.319 32.5565 171.433C32.4151 171.545 32.3445 171.707 32.3445 171.919V173.242H31.6914V170.875H32.3445V171.145C32.4516 171.048 32.587 170.972 32.7513 170.918C32.9193 170.863 33.0969 170.836 33.2841 170.836ZM36.7354 171.274H36.151V173.242H35.4922V171.274H35.1198V170.875H35.4922V170.707C35.4922 170.435 35.5878 170.237 35.7787 170.114C35.9734 169.988 36.2771 169.925 36.6896 169.925V170.333C36.4909 170.333 36.3516 170.362 36.2714 170.419C36.1912 170.474 36.151 170.57 36.151 170.707V170.875H36.7354V171.274ZM37.6466 170.561C37.5281 170.561 37.4289 170.531 37.3487 170.471C37.2685 170.411 37.2284 170.336 37.2284 170.247C37.2284 170.158 37.2685 170.084 37.3487 170.024C37.4289 169.964 37.5281 169.934 37.6466 169.934C37.7612 169.934 37.8586 169.964 37.9388 170.024C38.019 170.084 38.0591 170.158 38.0591 170.247C38.0591 170.336 38.019 170.411 37.9388 170.471C37.8586 170.531 37.7612 170.561 37.6466 170.561ZM37.9675 170.875V173.242H37.3143V170.875H37.9675ZM40.0969 170.836C40.3412 170.836 40.557 170.873 40.7443 170.948C40.9352 171.019 41.0841 171.11 41.1912 171.218V170.875H41.85V173.281C41.85 173.499 41.7888 173.692 41.6667 173.861C41.5443 174.033 41.3667 174.167 41.1339 174.265C40.9047 174.362 40.6297 174.411 40.3089 174.411C39.881 174.411 39.5258 174.335 39.2432 174.183C38.9604 174.034 38.8 173.831 38.762 173.573H39.4094C39.4589 173.696 39.5641 173.795 39.7245 173.87C39.8885 173.947 40.0833 173.986 40.3089 173.986C40.5724 173.986 40.7844 173.925 40.9448 173.805C41.1089 173.685 41.1912 173.51 41.1912 173.281V172.886C41.0802 172.997 40.9294 173.092 40.7386 173.169C40.5513 173.244 40.3375 173.281 40.0969 173.281C39.8219 173.281 39.5698 173.229 39.3406 173.126C39.1151 173.02 38.9357 172.874 38.8021 172.688C38.6721 172.499 38.6073 172.285 38.6073 172.048C38.6073 171.81 38.6721 171.599 38.8021 171.416C38.9357 171.233 39.1151 171.091 39.3406 170.991C39.5698 170.887 39.8219 170.836 40.0969 170.836ZM41.1912 172.056C41.1912 171.893 41.1453 171.751 41.0537 171.631C40.9656 171.511 40.8492 171.419 40.7042 171.356C40.5589 171.293 40.4023 171.261 40.2344 171.261C40.0662 171.261 39.9096 171.293 39.7646 171.356C39.6193 171.416 39.501 171.506 39.4094 171.627C39.3214 171.744 39.2776 171.884 39.2776 172.048C39.2776 172.211 39.3214 172.354 39.4094 172.477C39.501 172.601 39.6193 172.695 39.7646 172.761C39.9135 172.824 40.0701 172.855 40.2344 172.855C40.4023 172.855 40.5589 172.824 40.7042 172.761C40.8492 172.698 40.9656 172.606 41.0537 172.486C41.1453 172.363 41.1912 172.22 41.1912 172.056ZM45.5667 170.875V173.242H44.9135V172.963C44.8104 173.06 44.6747 173.138 44.5068 173.195C44.3425 173.249 44.1667 173.277 43.9797 173.277C43.7313 173.277 43.5078 173.238 43.3094 173.161C43.1146 173.083 42.9599 172.969 42.8453 172.817C42.7344 172.665 42.6792 172.482 42.6792 172.267V170.875H43.3266V172.194C43.3266 172.406 43.3971 172.569 43.5385 172.684C43.6797 172.795 43.8727 172.851 44.1172 172.851C44.3615 172.851 44.5544 172.795 44.6958 172.684C44.8409 172.569 44.9135 172.406 44.9135 172.194V170.875H45.5667ZM47.0815 171.218C47.1768 171.098 47.3029 171.005 47.4596 170.939C47.6201 170.87 47.8091 170.836 48.0268 170.836V171.343H47.8607C47.6047 171.343 47.4099 171.392 47.2763 171.489C47.1464 171.587 47.0815 171.755 47.0815 171.996V173.242H46.4284V170.875H47.0815V171.218ZM48.4094 172.048C48.4094 171.81 48.4742 171.599 48.6042 171.416C48.7378 171.233 48.9175 171.091 49.1427 170.991C49.3719 170.887 49.624 170.836 49.899 170.836C50.1471 170.836 50.363 170.873 50.5464 170.948C50.7336 171.019 50.8826 171.11 50.9932 171.218V170.875H51.6521V173.242H50.9932V172.89C50.8826 173.002 50.7315 173.095 50.5406 173.169C50.3497 173.244 50.132 173.281 49.8875 173.281C49.6164 173.281 49.368 173.229 49.1427 173.126C48.9175 173.02 48.7378 172.874 48.6042 172.688C48.4742 172.499 48.4094 172.285 48.4094 172.048ZM50.9932 172.056C50.9932 171.893 50.9474 171.751 50.8557 171.631C50.768 171.511 50.6513 171.419 50.5063 171.356C50.3612 171.293 50.2044 171.261 50.0365 171.261C49.8685 171.261 49.7117 171.293 49.5667 171.356C49.4216 171.416 49.3031 171.506 49.2115 171.627C49.1237 171.744 49.0797 171.884 49.0797 172.048C49.0797 172.211 49.1237 172.354 49.2115 172.477C49.3031 172.601 49.4216 172.695 49.5667 172.761C49.7156 172.824 49.8721 172.855 50.0365 172.855C50.2044 172.855 50.3612 172.824 50.5063 172.761C50.6513 172.698 50.768 172.606 50.8557 172.486C50.9474 172.363 50.9932 172.22 50.9932 172.056ZM53.8391 172.868C54.2172 172.868 54.4675 172.744 54.5896 172.495H55.2943C55.2104 172.712 55.0594 172.891 54.8417 173.032C54.6279 173.169 54.3586 173.249 54.0339 173.272V173.448C54.2555 173.448 54.4349 173.487 54.5724 173.564C54.7099 173.645 54.7787 173.756 54.7787 173.9C54.7787 174.043 54.7099 174.156 54.5724 174.239C54.4349 174.325 54.2612 174.368 54.0511 174.368H53.2948V174.059H53.9193C54.0263 174.059 54.1065 174.047 54.1599 174.024C54.2135 174.001 54.2401 173.96 54.2401 173.9C54.2401 173.839 54.2135 173.798 54.1599 173.775C54.1065 173.752 54.0263 173.741 53.9193 173.741H53.6042V173.268C53.3445 173.245 53.1154 173.181 52.9167 173.075C52.7182 172.966 52.5635 172.825 52.4526 172.654C52.3458 172.479 52.2922 172.28 52.2922 172.056C52.2922 171.813 52.3573 171.599 52.487 171.416C52.6208 171.23 52.8042 171.087 53.037 170.986C53.2701 170.886 53.5375 170.836 53.8391 170.836C54.2211 170.836 54.5362 170.905 54.7844 171.042C55.0365 171.177 55.2065 171.37 55.2943 171.622H54.5896C54.5323 171.505 54.4406 171.413 54.3146 171.347C54.1885 171.281 54.0302 171.248 53.8391 171.248C53.5719 171.248 53.3578 171.32 53.1974 171.463C53.0409 171.604 52.9625 171.801 52.9625 172.056C52.9625 172.311 53.0409 172.51 53.1974 172.654C53.3578 172.797 53.5719 172.868 53.8391 172.868ZM57.3146 173.281C57.0167 173.281 56.7474 173.231 56.5068 173.13C56.2662 173.027 56.0771 172.884 55.9396 172.701C55.8021 172.515 55.7333 172.3 55.7333 172.056C55.7333 171.816 55.8039 171.602 55.9453 171.416C56.0865 171.23 56.2794 171.087 56.524 170.986C56.7682 170.886 57.0414 170.836 57.3432 170.836C57.6448 170.836 57.918 170.886 58.1625 170.986C58.4068 171.087 58.5997 171.23 58.7411 171.416C58.8823 171.602 58.9531 171.816 58.9531 172.056C58.9531 172.297 58.8805 172.51 58.7354 172.696C58.5901 172.883 58.3917 173.027 58.1396 173.13C57.8912 173.231 57.6161 173.281 57.3146 173.281ZM57.3146 172.855C57.4826 172.855 57.6391 172.825 57.7844 172.765C57.9333 172.705 58.0536 172.615 58.1453 172.495C58.237 172.374 58.2828 172.228 58.2828 172.056C58.2828 171.884 58.2388 171.74 58.151 171.622C58.063 171.502 57.9466 171.412 57.8016 171.352C57.6563 171.291 57.4997 171.261 57.3318 171.261C57.1635 171.261 57.007 171.291 56.862 171.352C56.7206 171.412 56.6078 171.502 56.524 171.622C56.4399 171.74 56.3979 171.884 56.3979 172.056C56.3979 172.311 56.4839 172.509 56.6557 172.649C56.8313 172.787 57.051 172.855 57.3146 172.855ZM56.4094 170.591C56.4398 170.425 56.5125 170.3 56.6271 170.217C56.7417 170.131 56.8849 170.088 57.0568 170.088C57.1292 170.088 57.1922 170.097 57.2458 170.114C57.2992 170.131 57.3641 170.157 57.4406 170.191C57.4979 170.22 57.5456 170.242 57.5839 170.256C57.6258 170.27 57.6716 170.277 57.7214 170.277C57.7862 170.277 57.8396 170.263 57.8818 170.234C57.9276 170.203 57.9563 170.157 57.9677 170.097H58.3344C58.3037 170.263 58.2313 170.389 58.1167 170.475C58.0021 170.558 57.8589 170.6 57.687 170.6C57.6143 170.6 57.5495 170.591 57.4922 170.574C57.4349 170.554 57.3719 170.527 57.3031 170.492C57.2344 170.461 57.1807 170.439 57.1427 170.428C57.1083 170.413 57.0682 170.406 57.0224 170.406C56.9573 170.406 56.9021 170.422 56.8563 170.454C56.8141 170.485 56.7875 170.531 56.7761 170.591H56.4094ZM62.4919 172C62.4919 172.089 62.4844 172.169 62.469 172.241H60.057C60.076 172.43 60.1698 172.582 60.3378 172.696C60.5057 172.811 60.712 172.868 60.9565 172.868C61.3078 172.868 61.5563 172.758 61.7013 172.537H62.406C62.3104 172.755 62.1367 172.934 61.8846 173.075C61.6365 173.212 61.3271 173.281 60.9565 173.281C60.6547 173.281 60.3836 173.231 60.143 173.13C59.9063 173.027 59.719 172.884 59.5815 172.701C59.4479 172.515 59.381 172.3 59.381 172.056C59.381 171.813 59.4458 171.599 59.5758 171.416C59.7094 171.23 59.8948 171.087 60.1315 170.986C60.3721 170.886 60.6471 170.836 60.9565 170.836C61.2544 170.836 61.5198 170.885 61.7529 170.982C61.9859 171.079 62.1672 171.217 62.2971 171.395C62.4271 171.569 62.4919 171.771 62.4919 172ZM61.8102 171.846C61.8063 171.665 61.7203 171.52 61.5524 171.412C61.3844 171.303 61.176 171.248 60.9279 171.248C60.7026 171.248 60.5096 171.303 60.3492 171.412C60.1888 171.518 60.0932 171.662 60.0628 171.846H61.8102ZM64.2805 173.281C64.0323 173.281 63.8089 173.248 63.6102 173.182C63.4154 173.113 63.2607 173.022 63.1461 172.907C63.0315 172.79 62.9703 172.659 62.9628 172.516H63.6388C63.6503 172.616 63.7133 172.701 63.8279 172.77C63.9464 172.835 64.0932 172.868 64.269 172.868C64.4524 172.868 64.5938 172.843 64.693 172.791C64.7961 172.737 64.8477 172.668 64.8477 172.585C64.8477 172.496 64.7904 172.43 64.6758 172.387C64.5651 172.344 64.3875 172.297 64.143 172.245C63.9063 172.197 63.7133 172.149 63.5643 172.103C63.4154 172.058 63.2854 171.987 63.1748 171.893C63.0677 171.798 63.0143 171.674 63.0143 171.519C63.0143 171.393 63.0641 171.279 63.1633 171.175C63.2625 171.069 63.4039 170.986 63.5872 170.926C63.7745 170.866 63.9883 170.836 64.2289 170.836C64.588 170.836 64.8763 170.905 65.094 171.042C65.3156 171.177 65.4339 171.362 65.4492 171.596H64.7961C64.7846 171.49 64.7273 171.406 64.6242 171.343C64.5211 171.28 64.3818 171.248 64.206 171.248C64.0341 171.248 63.9024 171.273 63.8107 171.321C63.719 171.37 63.6732 171.435 63.6732 171.515C63.6732 171.578 63.7037 171.631 63.7649 171.674C63.826 171.717 63.9005 171.751 63.9883 171.777C64.076 171.8 64.206 171.83 64.3779 171.867C64.607 171.913 64.7943 171.96 64.9393 172.009C65.0883 172.055 65.2162 172.124 65.3232 172.215C65.4302 172.307 65.4854 172.429 65.4893 172.58C65.4893 172.715 65.4396 172.835 65.3404 172.941C65.2411 173.047 65.0997 173.13 64.9164 173.191C64.737 173.251 64.525 173.281 64.2805 173.281Z" fill="#F5F5F5"/>
<path d="M17.9687 171.828V171.68V171.529L18.4687 171.201C18.5609 171.14 18.6214 171.057 18.6395 170.966C18.6576 170.875 18.6322 170.782 18.5677 170.703L17.9531 169.922C17.9074 169.863 17.8418 169.813 17.7627 169.779C17.6836 169.745 17.5939 169.727 17.5026 169.727C17.446 169.726 17.3897 169.733 17.3359 169.746L16.7031 169.906C16.5939 169.852 16.4799 169.803 16.362 169.76L16.2292 169.268C16.2054 169.178 16.1401 169.097 16.0449 169.039C15.9497 168.982 15.8305 168.951 15.7083 168.953H14.4896C14.3674 168.951 14.2482 168.982 14.153 169.039C14.0578 169.097 13.9926 169.178 13.9687 169.268L13.8359 169.76C13.7172 169.803 13.6023 169.852 13.4922 169.906L12.8724 169.738C12.818 169.728 12.7618 169.724 12.7057 169.727C12.6144 169.727 12.5247 169.745 12.4456 169.779C12.3665 169.813 12.3009 169.863 12.2552 169.922L11.6406 170.703C11.5798 170.781 11.5573 170.873 11.5767 170.963C11.5962 171.052 11.6565 171.134 11.7474 171.193L12.2396 171.531V171.83L11.7474 172.158C11.654 172.218 11.592 172.301 11.5724 172.393C11.5529 172.484 11.5771 172.577 11.6406 172.656L12.2552 173.438C12.3009 173.497 12.3665 173.546 12.4456 173.58C12.5247 173.615 12.6144 173.633 12.7057 173.633C12.7623 173.633 12.8186 173.627 12.8724 173.613L13.5052 173.453C13.6144 173.508 13.7284 173.556 13.8463 173.6L13.9792 174.092C14.003 174.182 14.0682 174.263 14.1634 174.32C14.2586 174.378 14.3778 174.408 14.5 174.406H15.7292C15.8514 174.408 15.9705 174.378 16.0657 174.32C16.161 174.263 16.2262 174.182 16.25 174.092L16.3828 173.6C16.5016 173.556 16.6164 173.508 16.7266 173.453L17.3568 173.613C17.4105 173.627 17.4668 173.633 17.5234 173.633C17.6148 173.633 17.7045 173.615 17.7835 173.58C17.8626 173.546 17.9283 173.497 17.974 173.438L18.5677 172.656C18.6285 172.578 18.6511 172.486 18.6316 172.397C18.6121 172.307 18.5518 172.226 18.4609 172.166L17.9687 171.828ZM17.5026 173.242L16.6094 173.016C16.4003 173.148 16.1613 173.252 15.9036 173.322L15.7187 174.023H14.4896L14.3047 173.33C14.0491 173.258 13.8114 173.155 13.6016 173.023L12.7057 173.242L12.0911 172.461L12.7995 171.992C12.7513 171.79 12.7513 171.583 12.7995 171.381L12.0911 170.898L12.7057 170.117L13.599 170.344C13.808 170.211 14.047 170.107 14.3047 170.037L14.4896 169.336H15.7187L15.9036 170.029C16.1593 170.101 16.3969 170.205 16.6068 170.336L17.5026 170.117L18.1172 170.898L17.4088 171.367C17.457 171.569 17.457 171.776 17.4088 171.979L18.1172 172.461L17.5026 173.242Z" fill="white"/>
<path d="M15.1042 172.852C14.7951 172.852 14.493 172.783 14.2361 172.654C13.9791 172.525 13.7789 172.342 13.6606 172.128C13.5423 171.914 13.5114 171.678 13.5717 171.451C13.632 171.224 13.7808 171.015 13.9993 170.851C14.2178 170.687 14.4963 170.576 14.7994 170.53C15.1024 170.485 15.4166 170.508 15.7021 170.597C15.9876 170.686 16.2316 170.836 16.4033 171.029C16.575 171.221 16.6667 171.448 16.6667 171.68C16.6688 171.834 16.6298 171.987 16.552 172.13C16.4742 172.273 16.3592 172.403 16.2137 172.512C16.0682 172.621 15.8951 172.707 15.7046 172.766C15.5141 172.824 15.31 172.853 15.1042 172.852ZM15.1042 170.898C14.9665 170.896 14.8296 170.915 14.7018 170.953C14.5739 170.991 14.4578 171.049 14.3605 171.122C14.2631 171.195 14.1865 171.282 14.1353 171.378C14.084 171.474 14.0593 171.576 14.0625 171.68C14.0593 171.783 14.084 171.886 14.1353 171.981C14.1865 172.077 14.2631 172.164 14.3605 172.238C14.4578 172.311 14.5739 172.368 14.7018 172.406C14.8296 172.445 14.9665 172.463 15.1042 172.461C15.2419 172.463 15.3787 172.445 15.5066 172.406C15.6344 172.368 15.7505 172.311 15.8479 172.238C15.9453 172.164 16.0219 172.077 16.0731 171.981C16.1243 171.886 16.149 171.783 16.1458 171.68C16.149 171.576 16.1243 171.474 16.0731 171.378C16.0219 171.282 15.9453 171.195 15.8479 171.122C15.7505 171.049 15.6344 170.991 15.5066 170.953C15.3787 170.915 15.2419 170.896 15.1042 170.898Z" fill="white"/>
<path d="M12.5 185.742H15.625C15.7631 185.742 15.8955 185.701 15.9931 185.628C16.0908 185.554 16.1457 185.455 16.1458 185.352V184.766H15.625V185.352H12.5V180.664H15.625V181.25H16.1458V180.664C16.1457 180.561 16.0908 180.461 15.9931 180.388C15.8955 180.315 15.7631 180.274 15.625 180.273H12.5C12.3619 180.274 12.2295 180.315 12.1319 180.388C12.0342 180.461 11.9793 180.561 11.9792 180.664V185.352C11.9793 185.455 12.0342 185.554 12.1319 185.628C12.2295 185.701 12.3619 185.742 12.5 185.742Z" fill="white"/>
<path d="M16.2984 183.904L17.2323 183.203H13.5417V182.812H17.2323L16.2984 182.112L16.6667 181.836L18.2292 183.008L16.6667 184.18L16.2984 183.904Z" fill="white"/>
<path d="M17.7083 50H12.5C12.356 50 12.2396 50.0873 12.2396 50.1953V55.2734C12.2396 55.3814 12.356 55.4688 12.5 55.4688H17.7083C17.8524 55.4688 17.9687 55.3814 17.9687 55.2734V50.1953C17.9687 50.0873 17.8524 50 17.7083 50ZM15.5924 50.4395H16.3737V51.7205L15.9953 51.5137L15.5924 51.7297V50.4395ZM17.3828 55.0293H12.8255V50.4395H15.1042V52.2516C15.1042 52.2717 15.1123 52.2918 15.1286 52.3084C15.1385 52.3188 15.151 52.3277 15.1655 52.3346C15.18 52.3414 15.1962 52.3459 15.213 52.348C15.2299 52.3502 15.2472 52.3498 15.2638 52.3467C15.2805 52.3438 15.2962 52.3385 15.31 52.3309L15.992 51.9652L16.6544 52.3279C16.6764 52.34 16.7033 52.3469 16.731 52.3469C16.8026 52.3469 16.8612 52.3029 16.8612 52.2492V50.4395H17.382V55.0293H17.3828Z" fill="white"/>
<path d="M11.9792 39.0625V39.4531H13.1734L11.4583 40.7395L11.8266 41.0156L13.5417 39.7293V40.625H14.0625V39.0625H11.9792Z" fill="white"/>
<path d="M17.1875 39.2578H17.7083V40.2344H17.1875V39.2578Z" fill="white"/>
<path d="M16.1458 38.2812H16.6667V40.2344H16.1458V38.2812Z" fill="white"/>
<path d="M15.1042 38.6719H15.625V40.2344H15.1042V38.6719Z" fill="white"/>
<path d="M18.2292 35.5469H11.9792C11.8411 35.5471 11.7087 35.5881 11.611 35.6613C11.5134 35.7346 11.4585 35.834 11.4583 35.9375V38.2812H11.9792V37.6953H18.2294L18.2297 40.625H15.1042V41.0156H18.2292C18.3672 41.0154 18.4996 40.9742 18.5972 40.901C18.6948 40.8277 18.7498 40.7285 18.75 40.625V35.9375C18.7499 35.834 18.6949 35.7346 18.5973 35.6613C18.4997 35.5881 18.3673 35.5471 18.2292 35.5469ZM14.0625 37.3047H11.9792V35.9375H14.0625V37.3047ZM14.5833 37.3047V35.9375H18.2292V37.3047H14.5833Z" fill="white"/>
<path d="M12.6736 26.4322H17.5347C17.7189 26.4322 17.8955 26.3773 18.0258 26.2797C18.156 26.182 18.2292 26.0496 18.2292 25.9115V23.5678C18.2294 23.5334 18.2207 23.4994 18.2034 23.4678C18.1861 23.4359 18.1606 23.4072 18.1285 23.3828L15.3507 21.2994C15.2856 21.251 15.1976 21.2238 15.1059 21.2238C15.0142 21.2238 14.9262 21.251 14.8611 21.2994L12.0833 23.3828C12.0505 23.4068 12.0244 23.4357 12.0065 23.4674C11.9887 23.4992 11.9793 23.5332 11.9792 23.5678V25.9115C11.9792 26.0496 12.0523 26.182 12.1825 26.2797C12.3128 26.3773 12.4894 26.4322 12.6736 26.4322ZM14.4097 25.9115V24.6094H15.7986V25.9115H14.4097ZM12.6736 23.6744L15.1042 21.8515L17.5347 23.6744V25.9115H16.493V24.6094C16.493 24.4713 16.4199 24.3387 16.2897 24.241C16.1594 24.1433 15.9828 24.0885 15.7986 24.0885H14.4097C14.2255 24.0885 14.0489 24.1433 13.9187 24.241C13.7884 24.3387 13.7153 24.4713 13.7153 24.6094V25.9115H12.6736V23.6744Z" fill="white"/>
<path d="M70.3125 19.043H7.8125C7.16529 19.043 6.64062 19.4365 6.64062 19.9219V27.7344C6.64062 28.2198 7.16529 28.6133 7.8125 28.6133H70.3125C70.9597 28.6133 71.4844 28.2198 71.4844 27.7344V19.9219C71.4844 19.4365 70.9597 19.043 70.3125 19.043Z" stroke="#F5F5F5"/>
<path d="M97.4749 22.9641C97.7861 23.0057 98.0499 23.1287 98.2666 23.3328C98.4833 23.5369 98.5916 23.7682 98.5916 24.0266C98.5916 24.2475 98.5138 24.4475 98.3583 24.6266C98.2083 24.8016 97.9887 24.9412 97.6999 25.0453C97.4111 25.1453 97.0749 25.1953 96.6916 25.1953H94.3749V20.8516H96.5833C96.9778 20.8516 97.3166 20.9016 97.5999 21.0016C97.8833 21.1016 98.0971 21.2369 98.2416 21.4078C98.3861 21.5744 98.4583 21.7619 98.4583 21.9703C98.4583 22.2203 98.3695 22.4287 98.1916 22.5953C98.0137 22.7619 97.7749 22.885 97.4749 22.9641ZM95.3249 22.6766H96.4999C96.8111 22.6766 97.0528 22.6244 97.2249 22.5203C97.4028 22.4119 97.4916 22.2578 97.4916 22.0578C97.4916 21.8619 97.4028 21.71 97.2249 21.6016C97.0528 21.4891 96.8111 21.4328 96.4999 21.4328H95.3249V22.6766ZM96.6083 24.6141C96.9304 24.6141 97.1833 24.5557 97.3666 24.4391C97.5499 24.3225 97.6416 24.16 97.6416 23.9516C97.6416 23.7391 97.5445 23.5703 97.3499 23.4453C97.1554 23.3203 96.8971 23.2578 96.5749 23.2578H95.3249V24.6141H96.6083ZM103.832 23.3891C103.832 23.5182 103.821 23.635 103.799 23.7391H100.291C100.318 24.0141 100.455 24.235 100.699 24.4016C100.943 24.5682 101.243 24.6516 101.599 24.6516C102.11 24.6516 102.471 24.4912 102.682 24.1703H103.707C103.568 24.4869 103.316 24.7475 102.949 24.9516C102.588 25.1516 102.138 25.2516 101.599 25.2516C101.16 25.2516 100.766 25.1787 100.416 25.0328C100.071 24.8828 99.7989 24.6744 99.5989 24.4078C99.4046 24.1369 99.3072 23.8244 99.3072 23.4703C99.3072 23.1162 99.4018 22.8057 99.5906 22.5391C99.7851 22.2682 100.055 22.06 100.399 21.9141C100.749 21.7682 101.149 21.6953 101.599 21.6953C102.032 21.6953 102.418 21.7662 102.757 21.9078C103.096 22.0494 103.36 22.2494 103.549 22.5078C103.738 22.7619 103.832 23.0557 103.832 23.3891ZM102.841 23.1641C102.835 22.9016 102.71 22.6912 102.466 22.5328C102.221 22.3744 101.918 22.2953 101.557 22.2953C101.23 22.2953 100.949 22.3744 100.716 22.5328C100.482 22.6869 100.343 22.8975 100.299 23.1641H102.841ZM110.325 21.6953C110.687 21.6953 111.009 21.7516 111.292 21.8641C111.581 21.9766 111.806 22.1432 111.967 22.3641C112.134 22.585 112.217 22.8516 112.217 23.1641V25.1953H111.275V23.2703C111.275 22.9619 111.173 22.7266 110.967 22.5641C110.762 22.3975 110.481 22.3141 110.125 22.3141C109.77 22.3141 109.487 22.3975 109.275 22.5641C109.07 22.7266 108.967 22.9619 108.967 23.2703V25.1953H108.025V23.2703C108.025 22.9619 107.923 22.7266 107.717 22.5641C107.512 22.3975 107.231 22.3141 106.875 22.3141C106.52 22.3141 106.237 22.3975 106.025 22.5641C105.82 22.7266 105.717 22.9619 105.717 23.2703V25.1953H104.767V21.7516H105.717V22.1453C105.873 22.0037 106.07 21.8932 106.309 21.8141C106.548 21.735 106.803 21.6953 107.075 21.6953C107.442 21.6953 107.77 21.7537 108.059 21.8703C108.348 21.9869 108.57 22.1557 108.725 22.3766C108.865 22.1682 109.081 22.0037 109.375 21.8828C109.67 21.7578 109.987 21.6953 110.325 21.6953ZM116.951 22.6328V23.2328H113.526V22.6328H116.951ZM120.076 24.5578L121.376 21.7516H122.384L120.634 25.1953H119.501L117.759 21.7516H118.776L120.076 24.5578ZM123.586 21.2953C123.413 21.2953 123.269 21.2516 123.152 21.1641C123.036 21.0766 122.977 20.9682 122.977 20.8391C122.977 20.71 123.036 20.6016 123.152 20.5141C123.269 20.4266 123.413 20.3828 123.586 20.3828C123.752 20.3828 123.894 20.4266 124.011 20.5141C124.127 20.6016 124.186 20.71 124.186 20.8391C124.186 20.9682 124.127 21.0766 124.011 21.1641C123.894 21.2516 123.752 21.2953 123.586 21.2953ZM124.052 21.7516V25.1953H123.102V21.7516H124.052ZM127.616 21.6953C127.977 21.6953 128.299 21.7516 128.583 21.8641C128.872 21.9766 129.097 22.1432 129.258 22.3641C129.419 22.585 129.499 22.8516 129.499 23.1641V25.1953H128.558V23.2703C128.558 22.9619 128.455 22.7266 128.249 22.5641C128.044 22.3975 127.763 22.3141 127.408 22.3141C127.052 22.3141 126.769 22.3975 126.558 22.5641C126.352 22.7266 126.249 22.9619 126.249 23.2703V25.1953H125.299V21.7516H126.249V22.1453C126.405 22.0037 126.602 21.8932 126.841 21.8141C127.086 21.735 127.344 21.6953 127.616 21.6953ZM130.395 23.4578C130.395 23.1119 130.489 22.8057 130.678 22.5391C130.872 22.2725 131.134 22.0662 131.461 21.9203C131.795 21.7703 132.164 21.6953 132.57 21.6953C132.87 21.6953 133.164 21.7453 133.453 21.8453C133.747 21.9412 133.981 22.0703 134.153 22.2328V20.5703H135.111V25.1953H134.153V24.6766C133.997 24.8432 133.781 24.9807 133.503 25.0891C133.231 25.1975 132.917 25.2516 132.561 25.2516C132.161 25.2516 131.795 25.1766 131.461 25.0266C131.134 24.8725 130.872 24.66 130.678 24.3891C130.489 24.1141 130.395 23.8037 130.395 23.4578ZM134.153 23.4703C134.153 23.2328 134.086 23.0266 133.953 22.8516C133.825 22.6766 133.656 22.5432 133.445 22.4516C133.234 22.36 133.006 22.3141 132.761 22.3141C132.517 22.3141 132.289 22.36 132.078 22.4516C131.867 22.5391 131.695 22.6703 131.561 22.8453C131.434 23.0162 131.37 23.2203 131.37 23.4578C131.37 23.6953 131.434 23.9037 131.561 24.0828C131.695 24.2619 131.867 24.3994 132.078 24.4953C132.295 24.5869 132.522 24.6328 132.761 24.6328C133.006 24.6328 133.234 24.5869 133.445 24.4953C133.656 24.4037 133.825 24.2703 133.953 24.0953C134.086 23.9162 134.153 23.7078 134.153 23.4703ZM138.351 25.2516C137.917 25.2516 137.526 25.1787 137.176 25.0328C136.826 24.8828 136.551 24.6744 136.351 24.4078C136.151 24.1369 136.051 23.8244 136.051 23.4703C136.051 23.1203 136.153 22.81 136.359 22.5391C136.565 22.2682 136.845 22.06 137.201 21.9141C137.556 21.7682 137.953 21.6953 138.392 21.6953C138.831 21.6953 139.228 21.7682 139.584 21.9141C139.94 22.06 140.22 22.2682 140.426 22.5391C140.631 22.81 140.734 23.1203 140.734 23.4703C140.734 23.8203 140.628 24.1307 140.417 24.4016C140.206 24.6725 139.917 24.8828 139.551 25.0328C139.19 25.1787 138.79 25.2516 138.351 25.2516ZM138.351 24.6328C138.595 24.6328 138.823 24.5891 139.034 24.5016C139.251 24.4141 139.426 24.2828 139.559 24.1078C139.692 23.9328 139.759 23.7203 139.759 23.4703C139.759 23.2203 139.695 23.01 139.567 22.8391C139.44 22.6641 139.27 22.5328 139.059 22.4453C138.848 22.3578 138.62 22.3141 138.376 22.3141C138.131 22.3141 137.903 22.3578 137.692 22.4453C137.487 22.5328 137.323 22.6641 137.201 22.8391C137.078 23.01 137.017 23.2203 137.017 23.4703C137.017 23.8412 137.142 24.1287 137.392 24.3328C137.648 24.5328 137.967 24.6328 138.351 24.6328ZM142.865 20.8516L142.757 23.8828H141.965L141.857 20.8516H142.865ZM142.39 25.2391C142.218 25.2391 142.073 25.1953 141.957 25.1078C141.84 25.0203 141.782 24.9119 141.782 24.7828C141.782 24.6537 141.84 24.5453 141.957 24.4578C142.073 24.3703 142.218 24.3266 142.39 24.3266C142.557 24.3266 142.698 24.3703 142.815 24.4578C142.932 24.5453 142.99 24.6537 142.99 24.7828C142.99 24.9119 142.932 25.0203 142.815 25.1078C142.698 25.1953 142.557 25.2391 142.39 25.2391Z" fill="black"/>
<path d="M358.073 41.9922H95.0521C94.333 41.9922 93.75 42.4294 93.75 42.9688V94.7266C93.75 95.2659 94.333 95.7031 95.0521 95.7031H358.073C358.792 95.7031 359.375 95.2659 359.375 94.7266V42.9688C359.375 42.4294 358.792 41.9922 358.073 41.9922Z" fill="#0CC778"/>
<path d="M222.656 103.516H95.0521C94.333 103.516 93.75 103.953 93.75 104.492V156.25C93.75 156.789 94.333 157.227 95.0521 157.227H222.656C223.375 157.227 223.958 156.789 223.958 156.25V104.492C223.958 103.953 223.375 103.516 222.656 103.516Z" fill="#FBAB1D"/>
<path d="M358.073 104.102H230.469C229.75 104.102 229.167 104.539 229.167 105.078V156.836C229.167 157.375 229.75 157.812 230.469 157.812H358.073C358.792 157.812 359.375 157.375 359.375 156.836V105.078C359.375 104.539 358.792 104.102 358.073 104.102Z" fill="#FBAB1D"/>
<path d="M97.7875 36.7187H97.075L94.9313 34.2859V36.7187H94.2188V33.4563H94.9313L97.075 35.8844V33.4563H97.7875V36.7187ZM100.217 36.7609C99.8919 36.7609 99.5982 36.7063 99.3357 36.5969C99.0732 36.4844 98.8669 36.3281 98.7169 36.1281C98.5669 35.925 98.4919 35.6906 98.4919 35.425C98.4919 35.1625 98.569 34.9297 98.7232 34.7266C98.8773 34.5234 99.0878 34.3672 99.3544 34.2578C99.6211 34.1484 99.919 34.0937 100.248 34.0937C100.577 34.0937 100.875 34.1484 101.142 34.2578C101.409 34.3672 101.619 34.5234 101.773 34.7266C101.927 34.9297 102.004 35.1625 102.004 35.425C102.004 35.6875 101.925 35.9203 101.767 36.1234C101.609 36.3266 101.392 36.4844 101.117 36.5969C100.846 36.7063 100.546 36.7609 100.217 36.7609ZM100.217 36.2969C100.4 36.2969 100.571 36.2641 100.729 36.1984C100.892 36.1328 101.023 36.0344 101.123 35.9031C101.223 35.7719 101.273 35.6125 101.273 35.425C101.273 35.2375 101.225 35.0797 101.129 34.9516C101.034 34.8203 100.907 34.7219 100.748 34.6562C100.59 34.5906 100.419 34.5578 100.236 34.5578C100.052 34.5578 99.8815 34.5906 99.7232 34.6562C99.569 34.7219 99.4461 34.8203 99.3544 34.9516C99.2628 35.0797 99.2169 35.2375 99.2169 35.425C99.2169 35.7031 99.3107 35.9187 99.4982 36.0719C99.6898 36.2219 99.9294 36.2969 100.217 36.2969ZM104.04 36.2406L105.015 34.1359H105.771L104.459 36.7187H103.609L102.303 34.1359H103.065L104.04 36.2406ZM106.072 35.4156C106.072 35.1562 106.143 34.9266 106.285 34.7266C106.431 34.5266 106.627 34.3719 106.872 34.2625C107.122 34.15 107.397 34.0937 107.697 34.0937C107.968 34.0937 108.204 34.1344 108.404 34.2156C108.608 34.2938 108.77 34.3922 108.891 34.5109V34.1359H109.61V36.7187H108.891V36.3344C108.77 36.4562 108.606 36.5578 108.397 36.6391C108.189 36.7203 107.952 36.7609 107.685 36.7609C107.389 36.7609 107.118 36.7047 106.872 36.5922C106.627 36.4766 106.431 36.3172 106.285 36.1141C106.143 35.9078 106.072 35.675 106.072 35.4156ZM108.891 35.425C108.891 35.2469 108.841 35.0922 108.741 34.9609C108.645 34.8297 108.518 34.7297 108.36 34.6609C108.202 34.5922 108.031 34.5578 107.847 34.5578C107.664 34.5578 107.493 34.5922 107.335 34.6609C107.177 34.7266 107.047 34.825 106.947 34.9562C106.852 35.0844 106.804 35.2375 106.804 35.4156C106.804 35.5937 106.852 35.75 106.947 35.8844C107.047 36.0187 107.177 36.1219 107.335 36.1937C107.497 36.2625 107.668 36.2969 107.847 36.2969C108.031 36.2969 108.202 36.2625 108.36 36.1937C108.518 36.125 108.645 36.025 108.741 35.8937C108.841 35.7594 108.891 35.6031 108.891 35.425ZM111.796 36.7609C111.525 36.7609 111.281 36.725 111.064 36.6531C110.852 36.5781 110.683 36.4781 110.558 36.3531C110.433 36.225 110.366 36.0828 110.358 35.9266H111.096C111.108 36.0359 111.177 36.1281 111.302 36.2031C111.431 36.275 111.591 36.3109 111.783 36.3109C111.983 36.3109 112.137 36.2828 112.246 36.2266C112.358 36.1672 112.414 36.0922 112.414 36.0016C112.414 35.9047 112.352 35.8328 112.227 35.7859C112.106 35.7391 111.912 35.6875 111.646 35.6313C111.387 35.5781 111.177 35.5266 111.014 35.4766C110.852 35.4266 110.71 35.35 110.589 35.2469C110.473 35.1437 110.414 35.0078 110.414 34.8391C110.414 34.7016 110.468 34.5766 110.577 34.4641C110.685 34.3484 110.839 34.2578 111.039 34.1922C111.243 34.1266 111.477 34.0937 111.739 34.0937C112.131 34.0937 112.446 34.1688 112.683 34.3188C112.925 34.4656 113.054 34.6672 113.071 34.9234H112.358C112.346 34.8078 112.283 34.7156 112.171 34.6469C112.058 34.5781 111.906 34.5437 111.714 34.5437C111.527 34.5437 111.383 34.5703 111.283 34.6234C111.183 34.6766 111.133 34.7469 111.133 34.8344C111.133 34.9031 111.166 34.9609 111.233 35.0078C111.3 35.0547 111.381 35.0922 111.477 35.1203C111.573 35.1453 111.714 35.1781 111.902 35.2188C112.152 35.2688 112.356 35.3203 112.514 35.3734C112.677 35.4234 112.816 35.4984 112.933 35.5984C113.05 35.6984 113.11 35.8312 113.114 35.9969C113.114 36.1437 113.06 36.275 112.952 36.3906C112.843 36.5063 112.689 36.5969 112.489 36.6625C112.293 36.7281 112.062 36.7609 111.796 36.7609ZM115.27 35.4156C115.27 35.1562 115.341 34.9266 115.483 34.7266C115.629 34.5266 115.824 34.3719 116.07 34.2625C116.32 34.15 116.595 34.0937 116.895 34.0937C117.166 34.0937 117.402 34.1344 117.602 34.2156C117.806 34.2938 117.968 34.3922 118.089 34.5109V34.1359H118.808V36.7187H118.089V36.3344C117.968 36.4562 117.804 36.5578 117.595 36.6391C117.387 36.7203 117.149 36.7609 116.883 36.7609C116.587 36.7609 116.316 36.7047 116.07 36.5922C115.824 36.4766 115.629 36.3172 115.483 36.1141C115.341 35.9078 115.27 35.675 115.27 35.4156ZM118.089 35.425C118.089 35.2469 118.039 35.0922 117.939 34.9609C117.843 34.8297 117.716 34.7297 117.558 34.6609C117.399 34.5922 117.229 34.5578 117.045 34.5578C116.862 34.5578 116.691 34.5922 116.533 34.6609C116.374 34.7266 116.245 34.825 116.145 34.9562C116.049 35.0844 116.002 35.2375 116.002 35.4156C116.002 35.5937 116.049 35.75 116.145 35.8844C116.245 36.0187 116.374 36.1219 116.533 36.1937C116.695 36.2625 116.866 36.2969 117.045 36.2969C117.229 36.2969 117.399 36.2625 117.558 36.1937C117.716 36.125 117.843 36.025 117.939 35.8937C118.039 35.7594 118.089 35.6031 118.089 35.425ZM120.575 34.5719V36.0016C120.575 36.0984 120.604 36.1687 120.663 36.2125C120.725 36.2531 120.829 36.2734 120.975 36.2734H121.413V36.7187H120.85C120.529 36.7187 120.283 36.6625 120.113 36.55C119.942 36.4375 119.856 36.2547 119.856 36.0016V34.5719H119.45V34.1359H119.856V33.4938H120.575V34.1359H121.413V34.5719H120.575ZM125.188 34.1359V36.7187H124.475V36.4141C124.363 36.5203 124.215 36.6047 124.032 36.6672C123.852 36.7266 123.661 36.7562 123.457 36.7562C123.186 36.7562 122.942 36.7141 122.725 36.6297C122.513 36.5453 122.344 36.4203 122.219 36.2547C122.098 36.0891 122.038 35.8891 122.038 35.6547V34.1359H122.744V35.575C122.744 35.8062 122.821 35.9844 122.975 36.1094C123.129 36.2312 123.34 36.2922 123.607 36.2922C123.873 36.2922 124.084 36.2312 124.238 36.1094C124.396 35.9844 124.475 35.8062 124.475 35.575V34.1359H125.188ZM125.89 35.4156C125.89 35.1562 125.961 34.9266 126.103 34.7266C126.249 34.5266 126.445 34.3719 126.69 34.2625C126.94 34.15 127.215 34.0937 127.515 34.0937C127.786 34.0937 128.022 34.1344 128.222 34.2156C128.426 34.2938 128.588 34.3922 128.709 34.5109V34.1359H129.428V36.7187H128.709V36.3344C128.588 36.4562 128.424 36.5578 128.215 36.6391C128.007 36.7203 127.77 36.7609 127.503 36.7609C127.207 36.7609 126.936 36.7047 126.69 36.5922C126.445 36.4766 126.249 36.3172 126.103 36.1141C125.961 35.9078 125.89 35.675 125.89 35.4156ZM128.709 35.425C128.709 35.2469 128.659 35.0922 128.559 34.9609C128.463 34.8297 128.336 34.7297 128.178 34.6609C128.02 34.5922 127.849 34.5578 127.665 34.5578C127.482 34.5578 127.311 34.5922 127.153 34.6609C126.995 34.7266 126.865 34.825 126.765 34.9562C126.67 35.0844 126.622 35.2375 126.622 35.4156C126.622 35.5937 126.67 35.75 126.765 35.8844C126.865 36.0187 126.995 36.1219 127.153 36.1937C127.315 36.2625 127.486 36.2969 127.665 36.2969C127.849 36.2969 128.02 36.2625 128.178 36.1937C128.336 36.125 128.463 36.025 128.559 35.8937C128.659 35.7594 128.709 35.6031 128.709 35.425ZM131.076 33.25V36.7187H130.364V33.25H131.076ZM132.374 33.7937C132.245 33.7937 132.137 33.7609 132.049 33.6953C131.962 33.6297 131.918 33.5484 131.918 33.4516C131.918 33.3547 131.962 33.2734 132.049 33.2078C132.137 33.1422 132.245 33.1094 132.374 33.1094C132.499 33.1094 132.605 33.1422 132.693 33.2078C132.78 33.2734 132.824 33.3547 132.824 33.4516C132.824 33.5484 132.78 33.6297 132.693 33.6953C132.605 33.7609 132.499 33.7937 132.374 33.7937ZM132.724 34.1359V36.7187H132.012V34.1359H132.724ZM134.291 36.2828H135.853V36.7187H133.466V36.2828L135.035 34.5719H133.466V34.1359H135.853V34.5719L134.291 36.2828ZM136.364 35.4156C136.364 35.1562 136.435 34.9266 136.577 34.7266C136.722 34.5266 136.918 34.3719 137.164 34.2625C137.414 34.15 137.689 34.0937 137.989 34.0937C138.26 34.0937 138.495 34.1344 138.695 34.2156C138.899 34.2938 139.062 34.3922 139.183 34.5109V34.1359H139.902V36.7187H139.183V36.3344C139.062 36.4562 138.897 36.5578 138.689 36.6391C138.481 36.7203 138.243 36.7609 137.977 36.7609C137.681 36.7609 137.41 36.7047 137.164 36.5922C136.918 36.4766 136.722 36.3172 136.577 36.1141C136.435 35.9078 136.364 35.675 136.364 35.4156ZM139.183 35.425C139.183 35.2469 139.133 35.0922 139.033 34.9609C138.937 34.8297 138.81 34.7297 138.652 34.6609C138.493 34.5922 138.322 34.5578 138.139 34.5578C137.956 34.5578 137.785 34.5922 137.627 34.6609C137.468 34.7266 137.339 34.825 137.239 34.9562C137.143 35.0844 137.095 35.2375 137.095 35.4156C137.095 35.5937 137.143 35.75 137.239 35.8844C137.339 36.0187 137.468 36.1219 137.627 36.1937C137.789 36.2625 137.96 36.2969 138.139 36.2969C138.322 36.2969 138.493 36.2625 138.652 36.1937C138.81 36.125 138.937 36.025 139.033 35.8937C139.133 35.7594 139.183 35.6031 139.183 35.425ZM142.287 36.3109C142.7 36.3109 142.973 36.175 143.106 35.9031H143.875C143.783 36.1406 143.619 36.3359 143.381 36.4891C143.148 36.6391 142.854 36.7266 142.5 36.7516V36.9437C142.742 36.9437 142.938 36.9859 143.088 37.0703C143.238 37.1578 143.313 37.2797 143.313 37.4359C143.313 37.5922 143.238 37.7156 143.088 37.8062C142.938 37.9 142.748 37.9469 142.519 37.9469H141.694V37.6094H142.375C142.492 37.6094 142.579 37.5969 142.638 37.5719C142.696 37.5469 142.725 37.5016 142.725 37.4359C142.725 37.3703 142.696 37.325 142.638 37.3C142.579 37.275 142.492 37.2625 142.375 37.2625H142.031V36.7469C141.748 36.7219 141.498 36.6516 141.281 36.5359C141.065 36.4172 140.896 36.2641 140.775 36.0766C140.658 35.8859 140.6 35.6688 140.6 35.425C140.6 35.1594 140.671 34.9266 140.812 34.7266C140.958 34.5234 141.158 34.3672 141.413 34.2578C141.667 34.1484 141.958 34.0937 142.287 34.0937C142.704 34.0937 143.048 34.1688 143.319 34.3188C143.594 34.4656 143.779 34.6766 143.875 34.9516H143.106C143.044 34.8234 142.944 34.7234 142.806 34.6516C142.669 34.5797 142.496 34.5437 142.287 34.5437C141.996 34.5437 141.763 34.6219 141.588 34.7781C141.417 34.9312 141.331 35.1469 141.331 35.425C141.331 35.7031 141.417 35.9203 141.588 36.0766C141.763 36.2328 141.996 36.3109 142.287 36.3109ZM146.079 36.7609C145.754 36.7609 145.46 36.7063 145.197 36.5969C144.935 36.4844 144.729 36.3281 144.579 36.1281C144.429 35.925 144.354 35.6906 144.354 35.425C144.354 35.1625 144.431 34.9297 144.585 34.7266C144.739 34.5234 144.949 34.3672 145.216 34.2578C145.483 34.1484 145.781 34.0937 146.11 34.0937C146.439 34.0937 146.737 34.1484 147.004 34.2578C147.27 34.3672 147.481 34.5234 147.635 34.7266C147.789 34.9297 147.866 35.1625 147.866 35.425C147.866 35.6875 147.787 35.9203 147.629 36.1234C147.47 36.3266 147.254 36.4844 146.979 36.5969C146.708 36.7063 146.408 36.7609 146.079 36.7609ZM146.079 36.2969C146.262 36.2969 146.433 36.2641 146.591 36.1984C146.754 36.1328 146.885 36.0344 146.985 35.9031C147.085 35.7719 147.135 35.6125 147.135 35.425C147.135 35.2375 147.087 35.0797 146.991 34.9516C146.895 34.8203 146.768 34.7219 146.61 34.6562C146.452 34.5906 146.281 34.5578 146.097 34.5578C145.914 34.5578 145.743 34.5906 145.585 34.6562C145.431 34.7219 145.308 34.8203 145.216 34.9516C145.124 35.0797 145.079 35.2375 145.079 35.425C145.079 35.7031 145.172 35.9187 145.36 36.0719C145.552 36.2219 145.791 36.2969 146.079 36.2969ZM145.091 33.8266C145.124 33.6453 145.204 33.5094 145.329 33.4187C145.454 33.325 145.61 33.2781 145.797 33.2781C145.877 33.2781 145.945 33.2875 146.004 33.3062C146.062 33.325 146.133 33.3531 146.216 33.3906C146.279 33.4219 146.331 33.4453 146.372 33.4609C146.418 33.4766 146.468 33.4844 146.522 33.4844C146.593 33.4844 146.652 33.4687 146.697 33.4375C146.747 33.4031 146.779 33.3531 146.791 33.2875H147.191C147.158 33.4688 147.079 33.6063 146.954 33.7C146.829 33.7906 146.672 33.8359 146.485 33.8359C146.406 33.8359 146.335 33.8266 146.272 33.8078C146.21 33.7859 146.141 33.7562 146.066 33.7187C145.991 33.6844 145.933 33.6609 145.891 33.6484C145.854 33.6328 145.81 33.625 145.76 33.625C145.689 33.625 145.629 33.6422 145.579 33.6766C145.533 33.7109 145.504 33.7609 145.491 33.8266H145.091ZM151.727 35.3641C151.727 35.4609 151.718 35.5484 151.702 35.6266H149.071C149.091 35.8328 149.193 35.9984 149.377 36.1234C149.56 36.2484 149.785 36.3109 150.052 36.3109C150.435 36.3109 150.706 36.1906 150.864 35.95H151.633C151.529 36.1875 151.339 36.3828 151.064 36.5359C150.793 36.6859 150.456 36.7609 150.052 36.7609C149.723 36.7609 149.427 36.7063 149.164 36.5969C148.906 36.4844 148.702 36.3281 148.552 36.1281C148.406 35.925 148.333 35.6906 148.333 35.425C148.333 35.1594 148.404 34.9266 148.546 34.7266C148.691 34.5234 148.893 34.3672 149.152 34.2578C149.414 34.1484 149.714 34.0937 150.052 34.0937C150.377 34.0937 150.666 34.1469 150.921 34.2531C151.175 34.3594 151.373 34.5094 151.514 34.7031C151.656 34.8937 151.727 35.1141 151.727 35.3641ZM150.983 35.1953C150.979 34.9984 150.885 34.8406 150.702 34.7219C150.518 34.6031 150.291 34.5437 150.021 34.5437C149.775 34.5437 149.564 34.6031 149.389 34.7219C149.214 34.8375 149.11 34.9953 149.077 35.1953H150.983ZM153.678 36.7609C153.407 36.7609 153.163 36.725 152.947 36.6531C152.734 36.5781 152.565 36.4781 152.44 36.3531C152.315 36.225 152.249 36.0828 152.24 35.9266H152.978C152.99 36.0359 153.059 36.1281 153.184 36.2031C153.313 36.275 153.474 36.3109 153.665 36.3109C153.865 36.3109 154.02 36.2828 154.128 36.2266C154.24 36.1672 154.297 36.0922 154.297 36.0016C154.297 35.9047 154.234 35.8328 154.109 35.7859C153.988 35.7391 153.795 35.6875 153.528 35.6313C153.27 35.5781 153.059 35.5266 152.897 35.4766C152.734 35.4266 152.592 35.35 152.472 35.2469C152.355 35.1437 152.297 35.0078 152.297 34.8391C152.297 34.7016 152.351 34.5766 152.459 34.4641C152.567 34.3484 152.722 34.2578 152.922 34.1922C153.126 34.1266 153.359 34.0937 153.622 34.0937C154.013 34.0937 154.328 34.1688 154.565 34.3188C154.807 34.4656 154.936 34.6672 154.953 34.9234H154.24C154.228 34.8078 154.165 34.7156 154.053 34.6469C153.94 34.5781 153.788 34.5437 153.597 34.5437C153.409 34.5437 153.265 34.5703 153.165 34.6234C153.065 34.6766 153.015 34.7469 153.015 34.8344C153.015 34.9031 153.049 34.9609 153.115 35.0078C153.182 35.0547 153.263 35.0922 153.359 35.1203C153.455 35.1453 153.597 35.1781 153.784 35.2188C154.034 35.2688 154.238 35.3203 154.397 35.3734C154.559 35.4234 154.699 35.4984 154.815 35.5984C154.932 35.6984 154.992 35.8312 154.997 35.9969C154.997 36.1437 154.942 36.275 154.834 36.3906C154.726 36.5063 154.572 36.5969 154.372 36.6625C154.176 36.7281 153.945 36.7609 153.678 36.7609Z" fill="black"/>
</svg>
